<svg width="22" height="22" viewBox="0 0 22 22" fill="none" xmlns="http://www.w3.org/2000/svg">
<path d="M11.5044 4.35085C13.5095 4.35085 13.7469 4.35964 14.5355 4.3948C15.2683 4.42704 15.6641 4.55011 15.9279 4.65267C16.2767 4.78746 16.5288 4.95155 16.7897 5.21235C17.0535 5.47607 17.2148 5.72514 17.3496 6.07384C17.4522 6.33757 17.5753 6.73608 17.6076 7.46572C17.6428 8.25689 17.6516 8.49424 17.6516 10.4956C17.6516 12.4999 17.6428 12.7373 17.6076 13.5255C17.5753 14.2581 17.4522 14.6536 17.3496 14.9174C17.2148 15.2661 17.0506 15.5181 16.7897 15.7789C16.5259 16.0426 16.2767 16.2038 15.9279 16.3385C15.6641 16.4411 15.2654 16.5642 14.5355 16.5964C13.744 16.6316 13.5065 16.6404 11.5044 16.6404C9.49932 16.6404 9.26187 16.6316 8.47332 16.5964C7.74047 16.5642 7.34473 16.4411 7.08091 16.3385C6.73207 16.2038 6.47997 16.0397 6.21907 15.7789C5.95525 15.5151 5.79402 15.2661 5.65918 14.9174C5.55658 14.6536 5.43346 14.2551 5.40121 13.5255C5.36603 12.7343 5.35724 12.497 5.35724 10.4956C5.35724 8.49131 5.36603 8.25396 5.40121 7.46572C5.43346 6.73315 5.55658 6.33757 5.65918 6.07384C5.79402 5.72514 5.95818 5.47314 6.21907 5.21235C6.4829 4.94862 6.73207 4.78746 7.08091 4.65267C7.34473 4.55011 7.7434 4.42704 8.47332 4.3948C9.26187 4.35964 9.49932 4.35085 11.5044 4.35085ZM11.5044 3C9.46707 3 9.21204 3.00879 8.41176 3.04395C7.61442 3.07912 7.06625 3.20805 6.59136 3.39265C6.09595 3.58605 5.67676 3.84098 5.2605 4.26001C4.84131 4.67611 4.58628 5.09514 4.39281 5.58742C4.20813 6.06505 4.07915 6.61008 4.04397 7.40711C4.00879 8.21 4 8.46493 4 10.5015C4 12.538 4.00879 12.7929 4.04397 13.5929C4.07915 14.3899 4.20813 14.9379 4.39281 15.4126C4.58628 15.9078 4.84131 16.3268 5.2605 16.7429C5.67676 17.159 6.09595 17.4169 6.58843 17.6073C7.06625 17.792 7.61149 17.9209 8.40883 17.956C9.20911 17.9912 9.46414 18 11.5015 18C13.5388 18 13.7938 17.9912 14.5941 17.956C15.3914 17.9209 15.9396 17.792 16.4145 17.6073C16.907 17.4169 17.3262 17.159 17.7424 16.7429C18.1587 16.3268 18.4166 15.9078 18.6072 15.4155C18.7919 14.9379 18.9209 14.3929 18.956 13.5958C18.9912 12.7959 19 12.5409 19 10.5044C19 8.46787 18.9912 8.21293 18.956 7.41297C18.9209 6.61594 18.7919 6.06798 18.6072 5.59328C18.4225 5.09514 18.1675 4.67611 17.7483 4.26001C17.332 3.84391 16.9128 3.58605 16.4204 3.39559C15.9425 3.21098 15.3973 3.08205 14.6 3.04688C13.7968 3.00879 13.5417 3 11.5044 3Z" fill="#757575"/>
<path d="M11.5045 6.64819C9.37626 6.64819 7.64966 8.37412 7.64966 10.5015C7.64966 12.6289 9.37626 14.3548 11.5045 14.3548C13.6327 14.3548 15.3593 12.6289 15.3593 10.5015C15.3593 8.37412 13.6327 6.64819 11.5045 6.64819ZM11.5045 13.001C10.1238 13.001 9.00397 11.8816 9.00397 10.5015C9.00397 9.12133 10.1238 8.00197 11.5045 8.00197C12.8851 8.00197 14.0049 9.12133 14.0049 10.5015C14.0049 11.8816 12.8851 13.001 11.5045 13.001Z" fill="#757575"/>
<path d="M16.4115 6.49613C16.4115 6.99447 16.0069 7.39608 15.5115 7.39608C15.0132 7.39608 14.6116 6.99154 14.6116 6.49613C14.6116 5.99779 15.0161 5.59619 15.5115 5.59619C16.0069 5.59619 16.4115 6.00073 16.4115 6.49613Z" fill="#757575"/>
</svg>
