<svg width="180" height="180" viewBox="0 0 180 180" fill="none" xmlns="http://www.w3.org/2000/svg">
<rect x="0.5" y="0.5" width="179" height="179" rx="39.5" fill="white"/>
<path d="M111.56 51.8192C111.522 51.5603 111.718 51.2558 111.983 51.2558C114.414 51.2558 127.728 51.2558 129.017 51.2558C130.307 51.2558 131.596 53.8348 129.189 56.2419C127.814 58.0473 96.9962 80.2799 98.4796 98.0652C99.9629 115.85 133.313 125.386 138.242 126.68C138.507 126.749 138.553 127.084 138.337 127.265L130.327 133.985C130.219 134.075 130.174 134.219 130.213 134.348L133.652 145.554C133.726 145.799 133.524 146.045 133.27 145.992C128.855 145.072 97.2416 136.928 86.8068 118.053C81.4364 108.338 80.6172 101.633 80.6172 95.9591C80.6172 85.2211 85.1586 73.9742 92.8246 66.8159C99.6161 60.4744 100.648 60.0445 109.86 54.3583C111.434 53.3867 111.652 52.4484 111.56 51.8192Z" fill="url(#paint0_linear_2876_44751)"/>
<path d="M109.468 51.2558H129.018C129.018 51.2558 126.608 51.8508 123.688 53.405C115.551 57.736 110.392 61.486 103.142 70.6846C100.906 73.5215 95.2328 80.313 91.5361 93.638C85.9739 113.688 92.2358 145.992 81.6498 145.992L55.6875 145.992C55.6875 145.992 59.9392 145.14 61.2574 142.065C62.5312 139.093 64.5641 142.649 65.9177 114.442C67.5311 80.8205 82.8534 64.6482 90.0657 58.9057C99.3937 51.4786 109.468 51.2558 109.468 51.2558Z" fill="url(#paint1_linear_2876_44751)"/>
<path d="M51.4862 33.994C51.4872 32.8902 52.3822 32 53.486 32H75.1572C76.2618 32 77.1572 32.8954 77.1572 34V84.6748C77.1572 84.6748 77.1572 129.969 77.1572 138.111C77.1572 146.253 82.4351 145.993 81.4774 145.993C74.2657 145.993 63.9273 145.993 63.9273 145.993H56.0991C55.9965 145.993 55.8965 145.985 55.7966 145.962C55.0233 145.778 51.488 144.643 51.488 139.283C51.4936 127.437 51.5019 102.396 51.4845 84.6748C51.4642 64.0992 51.4806 40.8402 51.4862 33.994Z" fill="url(#paint2_linear_2876_44751)"/>
<rect x="0.5" y="0.5" width="179" height="179" rx="39.5" stroke="#E4E4E4"/>
<defs>
<linearGradient id="paint0_linear_2876_44751" x1="80.7032" y1="19.5336" x2="138.474" y2="145.992" gradientUnits="userSpaceOnUse">
<stop offset="0.23177" stop-color="#639780"/>
<stop offset="0.918628" stop-color="#B7D4BD"/>
</linearGradient>
<linearGradient id="paint1_linear_2876_44751" x1="50.8733" y1="145.992" x2="129.706" y2="51.2558" gradientUnits="userSpaceOnUse">
<stop offset="0.29381" stop-color="#D1DFCD"/>
<stop offset="0.895966" stop-color="#7AB193"/>
</linearGradient>
<linearGradient id="paint2_linear_2876_44751" x1="60.2433" y1="162.757" x2="60.2433" y2="32" gradientUnits="userSpaceOnUse">
<stop stop-color="#CBDCC9"/>
<stop offset="1" stop-color="#7DB395"/>
</linearGradient>
</defs>
</svg>
