<svg width="24" height="24" viewBox="0 0 24 24" fill="none" xmlns="http://www.w3.org/2000/svg">
<path d="M11.9925 23.9851C13.6393 23.9851 15.1856 23.6735 16.6314 23.0502C18.0772 22.427 19.3526 21.5607 20.4576 20.4516C21.5627 19.3424 22.4293 18.065 23.0576 16.6192C23.6859 15.1734 24 13.6312 24 11.9926C24 10.3539 23.6859 8.81164 23.0576 7.36584C22.4293 5.92006 21.5606 4.6426 20.4515 3.53348C19.3424 2.42434 18.065 1.55815 16.6192 0.934894C15.1734 0.311631 13.627 0 11.9802 0C10.3434 0 8.8016 0.311631 7.35491 0.934894C5.90823 1.55815 4.63486 2.42434 3.53482 3.53348C2.43479 4.6426 1.57065 5.92006 0.942391 7.36584C0.31413 8.81164 0 10.3539 0 11.9926C0 13.6312 0.31413 15.1734 0.942391 16.6192C1.57065 18.065 2.43683 19.3424 3.54095 20.4516C4.64509 21.5607 5.9205 22.427 7.36719 23.0502C8.81388 23.6735 10.3556 23.9851 11.9925 23.9851Z" fill="white"/>
<path d="M14.3332 17.8204C14.183 17.9622 13.9786 18.0296 13.7198 18.0223C13.461 18.015 13.2515 17.9345 13.0914 17.7808L8.19971 13.1564C7.86312 12.8544 7.69482 12.4712 7.69482 12.0069C7.69482 11.5425 7.86312 11.1552 8.19971 10.845L13.0914 6.23026C13.2697 6.06015 13.4792 5.97145 13.7198 5.96416C13.9604 5.95689 14.1649 6.03331 14.3332 6.19342C14.5096 6.36809 14.602 6.58073 14.6102 6.83135C14.6183 7.08197 14.5292 7.29143 14.3427 7.45972L9.51652 11.9994L14.3427 16.5514C14.521 16.7196 14.6097 16.927 14.6088 17.1735C14.6079 17.42 14.516 17.6357 14.3332 17.8204Z" fill="black"/>
</svg>
