<svg width="780" height="300" viewBox="0 0 780 300" fill="none" xmlns="http://www.w3.org/2000/svg">
<path d="M128.783 43.2013C128.702 42.6492 129.118 42 129.682 42C134.85 41.9999 163.155 42.0001 165.896 42.0001C168.638 42.0001 171.378 47.4987 166.261 52.6308C163.338 56.4799 97.8211 103.881 100.975 141.801C104.128 179.72 175.029 200.05 185.509 202.81C186.07 202.957 186.168 203.671 185.71 204.056L168.68 218.383C168.451 218.576 168.356 218.882 168.439 219.159L175.749 243.049C175.906 243.572 175.476 244.097 174.938 243.985C165.551 242.022 98.3427 224.659 76.1588 184.416C64.7416 163.704 63 149.407 63 137.31C63 114.416 72.6549 90.4371 88.9525 75.1753C103.391 61.6546 105.584 60.7381 125.169 48.6148C128.515 46.5432 128.979 44.5427 128.783 43.2013Z" fill="url(#paint0_linear_2844_44515)"/>
<path d="M124.877 42H167C167 42 161.808 43.2687 155.516 46.5826C137.983 55.8172 126.869 63.8131 111.246 83.4265C106.428 89.4755 94.2052 103.956 86.2403 132.368C74.2559 175.119 87.7478 244 64.939 244L9 244C9 244 18.1609 242.182 21.0011 235.625C23.7457 229.289 28.1258 236.871 31.0422 176.728C34.5185 105.039 67.5322 70.5557 83.072 58.3113C103.17 42.4751 124.877 42 124.877 42Z" fill="url(#paint1_linear_2844_44515)"/>
<path d="M0.0271001 1.96086C0.028082 0.857059 0.923139 0 2.02694 0H53.4257C54.5303 0 55.4257 0.895431 55.4257 2V112.749C55.4257 112.749 55.4257 112.749 55.4257 112.749C55.4257 112.749 55.4257 209.701 55.4257 227.129C55.4257 244.556 66.8161 243.998 64.7493 243.998C49.1856 243.998 26.8741 243.998 26.8741 243.998C26.8741 243.998 26.8741 243.998 26.8741 243.998H9.8004C9.69859 243.998 9.6022 243.991 9.50248 243.971C8.30042 243.723 0.0289651 241.582 0.0289651 229.636C0.0409116 204.28 0.0589304 150.681 0.0212633 112.749C-0.0251777 65.982 0.0175131 12.738 0.0271001 1.96086Z" fill="url(#paint2_linear_2844_44515)"/>
<path d="M258.314 47.3666C258.907 54.4664 259.203 60.3828 259.203 65.116C259.203 67.877 259.105 70.7367 258.907 73.6949C258.907 76.4559 258.709 79.6114 258.314 83.1613C254.165 83.9501 250.114 84.5418 246.162 84.9362C242.209 85.3306 238.257 85.5278 234.305 85.5278C230.551 85.5278 226.698 85.3306 222.745 84.9362C218.991 84.5418 215.138 83.9501 211.186 83.1613C210.79 79.8086 210.494 76.7518 210.296 73.9907C210.099 71.0325 210 68.1729 210 65.4118C210 62.848 210.099 60.087 210.296 57.1288C210.494 54.1705 210.79 50.9165 211.186 47.3666C215.138 46.3805 219.09 45.7889 223.042 45.5917C227.192 45.1972 231.242 45 235.195 45C238.949 45 242.703 45.1972 246.458 45.5917C250.41 45.7889 254.362 46.3805 258.314 47.3666ZM258.314 244.977H210.889V100.911H258.314V244.977Z" fill="url(#paint3_linear_2844_44515)"/>
<path d="M337.557 244.977H290.132V100.911H335.186L337.557 127.239H338.446C341.213 118.364 346.153 111.56 353.266 106.827C360.38 101.897 370.26 99.4316 382.907 99.4316C400.099 99.4316 412.745 104.263 420.847 113.927C429.146 123.59 433.296 140.354 433.296 164.217V244.977H385.871L385.575 173.387C385.575 162.343 383.895 154.455 380.536 149.722C377.176 144.988 370.853 142.622 361.566 142.622C352.871 142.622 346.745 144.791 343.189 149.13C339.632 153.271 337.754 160.47 337.557 170.725V244.977Z" fill="url(#paint4_linear_2844_44515)"/>
<path d="M557.941 244.977L556.162 223.973H554.977C551.618 231.862 546.776 237.778 540.453 241.723C534.327 245.667 525.336 247.639 513.48 247.639C494.312 247.639 480.283 242.117 471.39 231.073C462.498 219.832 457.854 202.97 457.459 180.487C457.262 160.371 459.337 144.397 463.684 132.564C468.031 120.731 474.848 112.251 484.136 107.123C493.423 101.995 505.279 99.4316 519.705 99.4316C527.214 99.4316 534.031 100.122 540.157 101.502C546.282 102.686 551.222 104.362 554.977 106.531L555.57 106.236V45.8875H602.995V244.977H557.941ZM528.893 207.407C536.797 207.407 543.219 204.942 548.16 200.012C553.1 195.081 555.57 186.897 555.57 175.458V144.397C548.258 141.439 539.663 139.959 529.782 139.959C520.495 139.959 513.776 142.227 509.627 146.763C505.675 151.102 503.699 159.977 503.699 173.387C503.699 184.826 505.279 193.405 508.441 199.124C511.8 204.646 518.618 207.407 528.893 207.407Z" fill="url(#paint5_linear_2844_44515)"/>
<path d="M655.213 299.408L678.036 245.273L620.83 101.502V100.911H673.887C679.42 116.491 684.557 132.169 689.3 147.947C694.24 163.724 698.192 179.896 701.156 196.462H701.749C704.713 180.093 708.467 164.02 713.012 148.242C717.755 132.465 723.09 116.688 729.018 100.911H780V101.798L703.824 300H655.213V299.408Z" fill="url(#paint6_linear_2844_44515)"/>
<defs>
<linearGradient id="paint0_linear_2844_44515" x1="63.1828" y1="-25.6338" x2="186.585" y2="243.717" gradientUnits="userSpaceOnUse">
<stop offset="0.23177" stop-color="#639780"/>
<stop offset="0.918628" stop-color="#B7D4BD"/>
</linearGradient>
<linearGradient id="paint1_linear_2844_44515" x1="-1.3728" y1="244" x2="166.388" y2="40.2761" gradientUnits="userSpaceOnUse">
<stop offset="0.29381" stop-color="#D1DFCD"/>
<stop offset="0.895966" stop-color="#7AB193"/>
</linearGradient>
<linearGradient id="paint2_linear_2844_44515" x1="18.9239" y1="279.882" x2="18.9239" y2="1.54275e-07" gradientUnits="userSpaceOnUse">
<stop stop-color="#CBDCC9"/>
<stop offset="1" stop-color="#7DB395"/>
</linearGradient>
<linearGradient id="paint3_linear_2844_44515" x1="495.5" y1="45" x2="495.5" y2="362.182" gradientUnits="userSpaceOnUse">
<stop stop-color="#80B597"/>
<stop offset="1" stop-color="#D1DFCD"/>
</linearGradient>
<linearGradient id="paint4_linear_2844_44515" x1="495.5" y1="45" x2="495.5" y2="362.182" gradientUnits="userSpaceOnUse">
<stop stop-color="#80B597"/>
<stop offset="1" stop-color="#D1DFCD"/>
</linearGradient>
<linearGradient id="paint5_linear_2844_44515" x1="495.5" y1="45" x2="495.5" y2="362.182" gradientUnits="userSpaceOnUse">
<stop stop-color="#80B597"/>
<stop offset="1" stop-color="#D1DFCD"/>
</linearGradient>
<linearGradient id="paint6_linear_2844_44515" x1="495.5" y1="45" x2="495.5" y2="362.182" gradientUnits="userSpaceOnUse">
<stop stop-color="#80B597"/>
<stop offset="1" stop-color="#D1DFCD"/>
</linearGradient>
</defs>
</svg>
