<svg width="20" height="17" viewBox="0 0 20 17" fill="none" xmlns="http://www.w3.org/2000/svg">
<path d="M4.30667 17H15.6431C16.2408 17 16.7044 16.8435 17.034 16.5305C17.3635 16.2175 17.5283 15.7776 17.5283 15.211V6.26572L16.1793 5.37525V14.879C16.1793 15.1435 16.1095 15.3459 15.9699 15.4862C15.8302 15.6265 15.6263 15.6966 15.3582 15.6966H4.59154C4.32343 15.6966 4.11815 15.6265 3.97571 15.4862C3.83327 15.3459 3.76206 15.1435 3.76206 14.879V5.38334L2.41308 6.26572V15.211C2.41308 15.7776 2.57925 16.2175 2.91161 16.5305C3.24397 16.8435 3.70899 17 4.30667 17ZM0 7.99C0 8.15731 0.0642369 8.30708 0.192711 8.43932C0.321185 8.57151 0.497138 8.63761 0.720571 8.63761C0.837872 8.63761 0.945399 8.61064 1.04315 8.5567C1.1409 8.50271 1.23447 8.44333 1.32384 8.37856L9.71099 1.57858C9.80594 1.49762 9.90506 1.45714 10.0084 1.45714C10.1117 1.45714 10.2109 1.49762 10.3058 1.57858L18.6929 8.37856C18.7767 8.44333 18.8675 8.50271 18.9653 8.5567C19.063 8.61064 19.1706 8.63761 19.2879 8.63761C19.4834 8.63761 19.6509 8.58229 19.7906 8.47165C19.9302 8.36101 20 8.20856 20 8.01429C20 7.78762 19.9134 7.60413 19.7403 7.46382L11.018 0.380476C10.7052 0.126825 10.3687 0 10.0084 0C9.64813 0 9.3116 0.126825 8.99878 0.380476L0.26812 7.46382C0.0893732 7.60413 0 7.77953 0 7.99ZM15.4252 4.33905L17.5283 6.05524V2.31524C17.5283 2.13714 17.4739 1.99547 17.365 1.89024C17.256 1.785 17.1094 1.73238 16.9251 1.73238H16.0285C15.8497 1.73238 15.7045 1.785 15.5928 1.89024C15.4811 1.99547 15.4252 2.13714 15.4252 2.31524V4.33905Z" fill="#7AB193"/>
<path d="M5.51412 14.6416H6.30412C6.47131 14.6416 6.5988 14.599 6.68658 14.5138C6.77435 14.4285 6.81824 14.3074 6.81824 14.1503V7.4043C6.81824 7.2472 6.77435 7.12538 6.68658 7.03884C6.5988 6.9523 6.47131 6.90904 6.30412 6.90904H5.51412C5.34693 6.90904 5.21944 6.9523 5.13167 7.03884C5.04389 7.12538 5 7.2472 5 7.4043V14.1503C5 14.3074 5.04389 14.4285 5.13167 14.5138C5.21944 14.599 5.34693 14.6416 5.51412 14.6416ZM7.82141 14.6416H9.51426C9.68145 14.6416 9.80893 14.599 9.8967 14.5138C9.98447 14.4285 10.0284 14.3074 10.0284 14.1503V8.76628C10.0284 8.61185 9.98447 8.49136 9.8967 8.40482C9.80893 8.31828 9.68145 8.27501 9.51426 8.27501H7.82141C7.65421 8.27501 7.52603 8.31828 7.43686 8.40482C7.34769 8.49136 7.30311 8.61185 7.30311 8.76628V14.1503C7.30311 14.3074 7.34769 14.4285 7.43686 14.5138C7.52603 14.599 7.65421 14.6416 7.82141 14.6416ZM8.21849 9.7009C8.14326 9.7009 8.08056 9.67693 8.0304 9.62901C7.98024 9.58108 7.95516 9.5225 7.95516 9.45326C7.95516 9.38404 7.98024 9.32612 8.0304 9.27952C8.08056 9.23293 8.14326 9.20963 8.21849 9.20963H9.12552C9.19798 9.20963 9.25859 9.23293 9.30736 9.27952C9.35613 9.32612 9.38051 9.38404 9.38051 9.45326C9.38051 9.5225 9.35613 9.58108 9.30736 9.62901C9.25859 9.67693 9.19798 9.7009 9.12552 9.7009H8.21849ZM8.21849 13.7109C8.14326 13.7109 8.08056 13.687 8.0304 13.6391C7.98024 13.5911 7.95516 13.5326 7.95516 13.4633C7.95516 13.3941 7.98024 13.3362 8.0304 13.2896C8.08056 13.243 8.14326 13.2197 8.21849 13.2197H9.12552C9.19798 13.2197 9.25859 13.243 9.30736 13.2896C9.35613 13.3362 9.38051 13.3941 9.38051 13.4633C9.38051 13.5326 9.35613 13.5911 9.30736 13.6391C9.25859 13.687 9.19798 13.7109 9.12552 13.7109H8.21849ZM11.0315 14.6416H12.064C12.2312 14.6416 12.3586 14.599 12.4464 14.5138C12.5342 14.4285 12.5781 14.3074 12.5781 14.1503V6.29794C12.5781 6.14084 12.5342 6.01902 12.4464 5.93248C12.3586 5.84594 12.2312 5.80267 12.064 5.80267H11.0315C10.8644 5.80267 10.7369 5.84594 10.6491 5.93248C10.5613 6.01902 10.5174 6.14084 10.5174 6.29794V14.1503C10.5174 14.3074 10.5613 14.4285 10.6491 14.5138C10.7369 14.599 10.8644 14.6416 11.0315 14.6416ZM13.8738 14.6616L14.5468 14.5697C14.7112 14.5484 14.8317 14.4911 14.9084 14.3979C14.985 14.3047 15.0136 14.1796 14.994 14.0225L14.1957 7.39631C14.1762 7.24187 14.1184 7.12605 14.0222 7.04883C13.9261 6.97161 13.7944 6.94365 13.6272 6.96495L12.9585 7.05682C12.7941 7.07812 12.6735 7.13537 12.5969 7.22856C12.5203 7.32176 12.4903 7.44557 12.5071 7.60001L13.3096 14.2262C13.3291 14.3833 13.3869 14.5005 13.483 14.5777C13.5792 14.6549 13.7094 14.6829 13.8738 14.6616Z" fill="#7AB193"/>
</svg>
